<svg xml:space="preserve" viewBox="0 0 100 100" xmlns="http://www.w3.org/2000/svg" version="1.1" width="200px" height="200px" xmlns:xlink="http://www.w3.org/1999/xlink">
  <g>
    <path stroke-miterlimit="10" stroke-linecap="round" stroke-width="3.5" stroke="#FFF" fill="none" d="M71.8 65.6c-1.8-2.3-4.2-4.2-7.1-5.7-3.9-2.1-6.2-5.4-6.2-9v-1.7c0-3.6 2.3-6.9 6.2-9 6.5-3.5 10.7-9.2 10.7-15.6V11.1H24.6v10.4" style="stroke:white;"></path>
    <path stroke-miterlimit="10" stroke-linecap="round" stroke-width="3.5" stroke="#FFF" fill="none" d="M75.1 72.7c-.1-.3-.1-.7-.2-1" style="stroke:white;"></path>
    <path stroke-miterlimit="10" stroke-linecap="round" stroke-width="3.5" stroke="#FFF" fill="none" d="M27.4 33.3c1.9 2.7 4.6 5.1 7.9 6.8 3.9 2.1 6.2 5.4 6.2 9v1.7c0 3.6-2.3 6.9-6.2 9-6.5 3.5-10.7 9.2-10.7 15.6v13.4h50.8V78.5" style="stroke:white;"></path>
    <path stroke-miterlimit="10" stroke-linecap="round" stroke-width="3.5" stroke="#FFF" fill="none" d="M24.8 27c0 .2.1.3.1.5" style="stroke:white;"></path>
    <path d="M14.6 11h70.8" stroke-miterlimit="10" stroke-linecap="round" stroke-width="3.5" stroke="#FFF" fill="none" style="stroke:white;aimation-play-state:paused" ></path>
    <path d="M14.6 89h70.8" stroke-miterlimit="10" stroke-linecap="round" stroke-width="3.5" stroke="#FFF" fill="none" style="stroke:white;"></path>
  </g>
</svg>