<?xml version="1.0" encoding="utf-8"?><svg xml:space="preserve" viewBox="0 0 100 100" y="0" x="0" xmlns="http://www.w3.org/2000/svg" id="圖層_1" version="1.1" width="300px" height="300px" xmlns:xlink="http://www.w3.org/1999/xlink" style="width:100%;height:100%;background-size:initial;background-repeat-y:initial;background-repeat-x:initial;background-position-y:initial;background-position-x:initial;background-origin:initial;background-color:initial;background-clip:initial;background-attachment:initial;animation-play-state:paused" ><g class="ldl-scale" style="transform-origin:50% 50%;transform:rotate(0deg) scale(0.8, 0.8);animation-play-state:paused" ><circle fill="#333" r="40" cy="50" cx="50" style="fill:rgb(51, 51, 51);animation-play-state:paused" ></circle>
<g style="animation-play-state:paused" ><g style="animation-play-state:paused" ><path stroke-linejoin="round" stroke-linecap="round" stroke-width="3.5" stroke="#fff" fill="none" d="M50 74c-13.255 0-24-10.745-24-24s10.745-24 24-24c3.978 0 7.73.968 11.034 2.681" style="stroke:rgb(255, 255, 255);animation-play-state:paused" ></path>
<g style="animation-play-state:paused" ><path d="M64.92 21.181l-9.797 13.904L66.97 33.03z" fill="#fff" style="fill:rgb(255, 255, 255);animation-play-state:paused" ></path></g></g></g>
<g style="animation-play-state:paused" ><g style="animation-play-state:paused" ><path stroke-linejoin="round" stroke-linecap="round" stroke-width="3.5" stroke="#fff" fill="none" d="M70.843 38.093a23.847 23.847 0 0 1 2.014 4.567" style="stroke:rgb(255, 255, 255);animation-play-state:paused" ></path>
<path stroke-dasharray="8.0279,8.0279" stroke-linejoin="round" stroke-linecap="round" stroke-width="3.5" stroke="#fff" fill="none" d="M73.993 50.571c-.231 9.895-6.451 18.309-15.176 21.757" style="stroke:rgb(255, 255, 255);animation-play-state:paused" ></path>
<path stroke-linejoin="round" stroke-linecap="round" stroke-width="3.5" stroke="#fff" fill="none" d="M54.97 73.485A24.08 24.08 0 0 1 50 74" style="stroke:rgb(255, 255, 255);animation-play-state:paused" ></path></g></g>
<g style="animation-play-state:paused" ><path stroke-miterlimit="10" stroke-width="3.5" stroke="#fff" fill="none" d="M56.958 43.019v-3.677H43.042v3.677c0 1.768 1.163 3.327 2.943 4.276 1.065.568 1.702 1.486 1.702 2.469v.471c0 .983-.637 1.902-1.702 2.469-1.78.948-2.943 2.508-2.943 4.276v3.677h13.917V56.98c0-1.768-1.163-3.327-2.943-4.276-1.065-.568-1.702-1.486-1.702-2.469v-.471c0-.983.637-1.902 1.702-2.469 1.779-.948 2.942-2.508 2.942-4.276z" style="stroke:rgb(255, 255, 255);animation-play-state:paused" ></path>
<path d="M40.305 39.321h19.39" stroke-miterlimit="10" stroke-linecap="round" stroke-width="3.5" stroke="#fff" fill="none" style="stroke:rgb(255, 255, 255);animation-play-state:paused" ></path>
<path d="M40.305 60.679h19.39" stroke-miterlimit="10" stroke-linecap="round" stroke-width="3.5" stroke="#fff" fill="none" style="stroke:rgb(255, 255, 255);animation-play-state:paused" ></path></g>
<metadata xmlns:d="https://loading.io/stock/" style="animation-play-state:paused" ><d:name style="animation-play-state:paused" >hourglass</d:name>
<d:tags style="animation-play-state:paused" >hourglass,wait,timeout,pause,pending,loading,temporal</d:tags>
<d:license style="animation-play-state:paused" >by</d:license>
<d:slug style="animation-play-state:paused" >dbkxjc</d:slug></metadata></g><!-- generated by https://loading.io/ --></svg>